# xmcd CD database file generated by Grip 3.3.1
# 
# Track frame offsets:
#       150
#       20250
#       34101
#       49947
#       62669
#       76677
#       96032
#       123691
#       144966
#       164708
#       180363
#       193839
#       209666
#       222457
#       234531
#       257751
#       272196
# 
# Disc length: 3897 seconds
# 
# Revision: 1
# Processed by: cddbd v1.5.2PL0 Copyright (c) Steve Scherf et al.
# Submitted via: Grip 3.3.1
# 
DISCID=fa0f3711
DTITLE=Ella Fitzgerald and Joe Pass - Easy Living
DYEAR=1986
DGENRE=Jazz
TTITLE0=My Ship
TTITLE1=Don't Be That Way
TTITLE2=My Man
TTITLE3=Don't Worry 'Bout Me
TTITLE4=The Days of Wine and Roses
TTITLE5=Easy Living
TTITLE6=I Don't Stand a Ghost of a Chance with You 
TTITLE7=Love for Sale
TTITLE8=Moonlight in Vermont
TTITLE9=On Green Dolphin Street
TTITLE10=Why Don't You Do Right? 
TTITLE11=By Myself
TTITLE12=I Want a Little Girl
TTITLE13=I'm Making Believe 
TTITLE14=Slow Boat to China
TTITLE15=Don't Be That Way (Take 3, Alternate)
TTITLE16=Love for Sale (Take 1, Alternate)
EXTD=YEAR: 1986
EXTT0=
EXTT1=
EXTT2=
EXTT3=
EXTT4=
EXTT5=
EXTT6=
EXTT7=
EXTT8=
EXTT9=
EXTT10=
EXTT11=
EXTT12=
EXTT13=
EXTT14=
EXTT15=
EXTT16=
PLAYORDER=
